<?xml version="1.0" encoding="UTF-8" standalone="no"?>
<svg
   width="1920"
   height="1080"
   viewBox="0 0 508 285.75"
   version="1.1"
   id="svg8"
   inkscape:version="1.1.1 (3bf5ae0d25, 2021-09-20, custom)"
   sodipodi:docname="frame.svg"
   inkscape:export-filename="/home/rixx/src/twitch-tools/img/frame.png"
   inkscape:export-xdpi="96"
   inkscape:export-ydpi="96"
   xmlns:inkscape="http://www.inkscape.org/namespaces/inkscape"
   xmlns:sodipodi="http://sodipodi.sourceforge.net/DTD/sodipodi-0.dtd"
   xmlns="http://www.w3.org/2000/svg"
   xmlns:svg="http://www.w3.org/2000/svg"
   xmlns:rdf="http://www.w3.org/1999/02/22-rdf-syntax-ns#"
   xmlns:cc="http://creativecommons.org/ns#"
   xmlns:dc="http://purl.org/dc/elements/1.1/">
  <style
     id="style833" />
  <defs
     id="defs2">
    <marker
       style="overflow:visible"
       id="Arrow1Lstart"
       refX="0.0"
       refY="0.0"
       orient="auto"
       inkscape:stockid="Arrow1Lstart"
       inkscape:isstock="true">
      <path
         transform="scale(0.8) translate(12.5,0)"
         style="fill-rule:evenodd;stroke:#373737;stroke-width:1pt;stroke-opacity:1;fill:#373737;fill-opacity:1"
         d="M 0.0,0.0 L 5.0,-5.0 L -12.5,0.0 L 5.0,5.0 L 0.0,0.0 z "
         id="path837" />
    </marker>
  </defs>
  <sodipodi:namedview
     id="base"
     pagecolor="#ffffff"
     bordercolor="#666666"
     borderopacity="1.0"
     inkscape:pageopacity="0.0"
     inkscape:pageshadow="2"
     inkscape:zoom="0.66846921"
     inkscape:cx="655.97636"
     inkscape:cy="245.33666"
     inkscape:document-units="mm"
     inkscape:current-layer="layer1"
     inkscape:document-rotation="0"
     showgrid="false"
     units="px"
     inkscape:window-width="1920"
     inkscape:window-height="1019"
     inkscape:window-x="0"
     inkscape:window-y="61"
     inkscape:window-maximized="1"
     inkscape:pagecheckerboard="0" />
  <metadata
     id="metadata5">
    <rdf:RDF>
      <cc:Work
         rdf:about="">
        <dc:format>image/svg+xml</dc:format>
        <dc:type
           rdf:resource="http://purl.org/dc/dcmitype/StillImage" />
      </cc:Work>
    </rdf:RDF>
  </metadata>
  <g
     inkscape:label="Layer 1"
     inkscape:groupmode="layer"
     id="layer1">
    <g
       id="g1180"
       style="stroke-width:1.00157;stroke-miterlimit:100;stroke-dasharray:none"
       transform="matrix(0.26458333,0,0,0.26458333,46.012557,-117.0689)" />
    <g
       id="g1182"
       style="stroke-width:1.00157;stroke-miterlimit:100;stroke-dasharray:none"
       transform="matrix(0.26458333,0,0,0.26458333,46.012557,-117.0689)" />
    <g
       id="g1184"
       style="stroke-width:1.00157;stroke-miterlimit:100;stroke-dasharray:none"
       transform="matrix(0.26458333,0,0,0.26458333,46.012557,-117.0689)" />
    <g
       id="g1186"
       style="stroke-width:1.00157;stroke-miterlimit:100;stroke-dasharray:none"
       transform="matrix(0.26458333,0,0,0.26458333,46.012557,-117.0689)" />
    <g
       id="g1188"
       style="stroke-width:1.00157;stroke-miterlimit:100;stroke-dasharray:none"
       transform="matrix(0.26458333,0,0,0.26458333,46.012557,-117.0689)" />
    <g
       id="g1190"
       style="stroke-width:1.00157;stroke-miterlimit:100;stroke-dasharray:none"
       transform="matrix(0.26458333,0,0,0.26458333,46.012557,-117.0689)" />
    <g
       id="g1192"
       style="stroke-width:1.00157;stroke-miterlimit:100;stroke-dasharray:none"
       transform="matrix(0.26458333,0,0,0.26458333,46.012557,-117.0689)" />
    <g
       id="g1194"
       style="stroke-width:1.00157;stroke-miterlimit:100;stroke-dasharray:none"
       transform="matrix(0.26458333,0,0,0.26458333,46.012557,-117.0689)" />
    <g
       id="g1196"
       style="stroke-width:1.00157;stroke-miterlimit:100;stroke-dasharray:none"
       transform="matrix(0.26458333,0,0,0.26458333,46.012557,-117.0689)" />
    <g
       id="g1198"
       style="stroke-width:1.00157;stroke-miterlimit:100;stroke-dasharray:none"
       transform="matrix(0.26458333,0,0,0.26458333,46.012557,-117.0689)" />
    <g
       id="g1200"
       style="stroke-width:1.00157;stroke-miterlimit:100;stroke-dasharray:none"
       transform="matrix(0.26458333,0,0,0.26458333,46.012557,-117.0689)" />
    <g
       id="g1202"
       style="stroke-width:1.00157;stroke-miterlimit:100;stroke-dasharray:none"
       transform="matrix(0.26458333,0,0,0.26458333,46.012557,-117.0689)" />
    <g
       id="g1204"
       style="stroke-width:1.00157;stroke-miterlimit:100;stroke-dasharray:none"
       transform="matrix(0.26458333,0,0,0.26458333,46.012557,-117.0689)" />
    <g
       id="g1206"
       style="stroke-width:1.00157;stroke-miterlimit:100;stroke-dasharray:none"
       transform="matrix(0.26458333,0,0,0.26458333,46.012557,-117.0689)" />
    <g
       id="g1208"
       style="stroke-width:1.00157;stroke-miterlimit:100;stroke-dasharray:none"
       transform="matrix(0.26458333,0,0,0.26458333,46.012557,-117.0689)" />
    <g
       id="g1321"
       transform="matrix(0.26458333,0,0,0.26458333,143.43758,-156.41336)" />
    <g
       id="g1323"
       transform="matrix(0.26458333,0,0,0.26458333,143.43758,-156.41336)" />
    <g
       id="g1325"
       transform="matrix(0.26458333,0,0,0.26458333,143.43758,-156.41336)" />
    <g
       id="g1327"
       transform="matrix(0.26458333,0,0,0.26458333,143.43758,-156.41336)" />
    <g
       id="g1329"
       transform="matrix(0.26458333,0,0,0.26458333,143.43758,-156.41336)" />
    <g
       id="g1331"
       transform="matrix(0.26458333,0,0,0.26458333,143.43758,-156.41336)" />
    <g
       id="g1333"
       transform="matrix(0.26458333,0,0,0.26458333,143.43758,-156.41336)" />
    <g
       id="g1335"
       transform="matrix(0.26458333,0,0,0.26458333,143.43758,-156.41336)" />
    <g
       id="g1337"
       transform="matrix(0.26458333,0,0,0.26458333,143.43758,-156.41336)" />
    <g
       id="g1339"
       transform="matrix(0.26458333,0,0,0.26458333,143.43758,-156.41336)" />
    <g
       id="g1341"
       transform="matrix(0.26458333,0,0,0.26458333,143.43758,-156.41336)" />
    <g
       id="g1343"
       transform="matrix(0.26458333,0,0,0.26458333,143.43758,-156.41336)" />
    <g
       id="g1345"
       transform="matrix(0.26458333,0,0,0.26458333,143.43758,-156.41336)" />
    <g
       id="g1347"
       transform="matrix(0.26458333,0,0,0.26458333,143.43758,-156.41336)" />
    <g
       id="g1349"
       transform="matrix(0.26458333,0,0,0.26458333,143.43758,-156.41336)" />
    <rect
       style="fill:#373737;fill-opacity:1;stroke:#373737;stroke-width:1.04372;stroke-linecap:round;stroke-linejoin:round;stroke-miterlimit:100;stroke-dasharray:none;stroke-opacity:1;paint-order:fill markers stroke"
       id="rect1468-2"
       width="98.734863"
       height="287.37119"
       x="414.10614"
       y="0.2071739"
       transform="skewX(0.04107583)"
       inkscape:export-xdpi="96"
       inkscape:export-ydpi="96" />
    <path
       style="color:#000000;font-style:normal;font-variant:normal;font-weight:normal;font-stretch:normal;font-size:medium;line-height:normal;font-family:sans-serif;font-variant-ligatures:normal;font-variant-position:normal;font-variant-caps:normal;font-variant-numeric:normal;font-variant-alternates:normal;font-feature-settings:normal;text-indent:0;text-align:start;text-decoration:none;text-decoration-line:none;text-decoration-style:solid;text-decoration-color:#000000;letter-spacing:normal;word-spacing:normal;text-transform:none;writing-mode:lr-tb;direction:ltr;text-orientation:mixed;dominant-baseline:auto;baseline-shift:baseline;text-anchor:start;white-space:normal;shape-padding:0;clip-rule:nonzero;display:inline;overflow:visible;visibility:visible;isolation:auto;mix-blend-mode:normal;color-interpolation:sRGB;color-interpolation-filters:linearRGB;solid-color:#000000;solid-opacity:1;vector-effect:none;fill:#f0ece2;fill-opacity:1;fill-rule:nonzero;stroke:none;stroke-width:0.541702;stroke-linecap:round;stroke-linejoin:round;stroke-miterlimit:4;stroke-dasharray:none;stroke-dashoffset:0;stroke-opacity:1;marker:none;color-rendering:auto;image-rendering:auto;shape-rendering:auto;text-rendering:auto;enable-background:accumulate"
       d="m 427.98322,24.352499 c -0.82568,0 -1.49918,0.673108 -1.49918,1.49879 v 0.461839 c 0,0.825678 0.6735,1.498598 1.49918,1.498598 h 0.33732 v 23.429163 c 2e-5,0.149581 0.12133,0.27089 0.27091,0.270905 h 11.80036 c 0.15484,1.571446 1.48371,2.804712 3.09499,2.804712 1.61127,0 2.94045,-1.233266 3.09537,-2.804712 h 11.59549 c 0.14958,-1.5e-5 0.27088,-0.121324 0.2709,-0.270905 V 27.811726 h 0.34391 c 0.82568,0 1.49918,-0.67292 1.49918,-1.498598 v -0.461839 c 0,-0.825682 -0.6735,-1.49879 -1.49918,-1.49879 z m 0,0.541809 h 30.80925 c 0.53495,0 0.95756,0.422034 0.95756,0.956981 v 0.461839 c 0,0.534944 -0.42261,0.95698 -0.95756,0.95698 h -0.61481 -29.58621 -0.60823 c -0.53495,0 -0.95757,-0.422036 -0.95757,-0.95698 v -0.461839 c 0,-0.534947 0.42262,-0.956981 0.95757,-0.956981 z m 16.62786,8.608565 c 0.95941,0 1.71221,0.398081 2.25826,1.194189 0.54605,0.796109 0.81911,1.888341 0.81911,3.27643 0,1.398292 -0.28569,2.50051 -0.85726,3.306826 -0.56646,0.801212 -1.33717,1.201744 -2.31189,1.201744 -0.43889,0 -0.83188,-0.07128 -1.1789,-0.214168 -0.34702,-0.147996 -0.69135,-0.41087 -1.03327,-0.788513 h -0.13787 c 0,0 0.009,0.984814 0.009,1.13281 v 3.483043 h -2.86464 v -12.43919 h 2.43428 l 0.42098,1.102405 h 0.13788 c 0.55625,-0.836938 1.32412,-1.255576 2.30395,-1.255576 z m -1.09447,2.350041 c -0.43887,0 -0.74776,0.158214 -0.92638,0.474618 -0.17351,0.311299 -0.26779,0.775761 -0.2831,1.393256 v 0.237403 c 0,0.745076 0.0994,1.28346 0.2984,1.615174 0.19902,0.33171 0.513,0.497464 0.94168,0.497464 0.38275,0 0.6609,-0.163307 0.83441,-0.489914 0.17351,-0.33171 0.26025,-0.877824 0.26025,-1.638215 0,-0.745075 -0.0867,-1.278366 -0.26025,-1.599872 -0.17351,-0.326607 -0.46185,-0.489914 -0.86501,-0.489914 z m -2.50418,15.65888 h 4.94911 c -0.15057,1.235172 -1.1978,2.186992 -2.47474,2.186992 -1.27695,0 -2.32386,-0.95182 -2.47437,-2.186992 z"
       id="rect4550" />
    <g
       aria-label="r"
       id="text817"
       style="font-size:38.8396px;line-height:1.25;font-family:'Fredericka the Great';-inkscape-font-specification:'Fredericka the Great, Normal';letter-spacing:0px;word-spacing:0px;fill:#f0ece2;stroke-width:0.970992">
      <path
         d="m 488.86978,73.229905 q -0.18965,0.53101 -0.45515,0.986162 -0.22758,0.455151 -0.6448,0.758586 -0.37929,0.341363 -0.72066,0.455151 -0.34136,0.113788 -0.68272,0.227576 -0.30344,0.07586 -0.6448,0.113788 -0.30344,0 -0.6448,-0.189647 -0.53101,-0.53101 -1.02409,-1.099949 -0.45515,-0.606869 -0.37929,-1.517172 0,-0.227576 0.0759,-0.417222 0.11378,-0.227576 0.11378,-0.531011 0.18965,-0.151717 0.30344,-0.303434 0.15171,-0.151717 0.22757,-0.417222 0.41723,-0.113788 0.72066,-0.341364 0.30343,-0.227576 0.6448,-0.417222 -0.11379,-0.189647 -0.30344,-0.227576 -0.15171,-0.03793 -0.34136,0 -0.18965,0.03793 -0.41722,0.07586 -0.22758,0.03793 -0.41722,-0.03793 -0.11379,0.303435 -0.49309,0.151718 -0.18964,0.189646 -0.45515,0.379293 -0.22757,0.189646 -0.49308,0.227575 -0.11379,0.189647 -0.30343,0.303435 -0.15172,0.113788 -0.34137,0.189646 -0.18964,0.113788 -0.2655,0.303435 -0.0759,0.189646 -0.34136,0.189646 0.0759,0.303434 -0.22758,0.53101 -0.26551,0.189647 -0.37929,0.455152 0.30343,0.227575 0.11378,0.606868 -0.15171,0.379293 -0.37929,0.455152 -0.0379,0.493081 -0.0379,0.872374 0,0.379293 0.30344,0.568939 -0.11379,0.341364 -0.34137,0.379293 0,0.265505 0.18965,0.379293 0,0.758586 0.11379,1.441313 0.11379,0.682728 -0.18965,1.213738 0.0759,0.113788 0.0759,0.265505 0.0379,0.151717 0.18965,0.227576 -0.18965,0.417222 -0.22758,0.834444 -0.0379,0.379293 -0.0759,0.796516 0.0759,0 0.22758,-0.03793 0.18964,-0.03793 0.15171,-0.227576 0.41723,-0.07586 0.68273,0.113788 -0.0379,0.265505 -0.18964,0.455152 -0.11379,0.151717 -0.30344,0.265505 -0.15172,0.113788 -0.30343,0.265505 -0.15172,0.113788 -0.26551,0.265505 0.0759,0.303435 -0.0379,0.455152 -0.11379,0.151717 0.0379,0.455151 0.18965,0.03793 0.26551,-0.03793 0.0759,-0.07586 0.2655,-0.07586 0.37929,0.417223 0.22758,0.606869 -0.11379,0.189647 -0.3793,0.113788 0,0.417222 -0.37929,0.606869 0,0.568939 0.0379,0.986161 0.0379,0.417223 0.11379,1.062021 0.18965,0.265505 0.18965,0.417222 0.0379,0.151717 -0.0379,0.303434 0.22757,0.189647 0.41722,0.341364 0.22757,0.151717 0.37929,0.455152 0.41722,0.189646 0.87237,0.189646 0.45516,-0.03793 0.83445,0.151717 0.34136,-0.113788 0.75859,-0.151717 0.41722,-0.03793 0.83444,-0.07586 0.18965,0.189646 0.26551,0.417222 0.11378,0.227576 0.0379,0.53101 -1.06202,-0.151717 -1.89646,0.03793 -0.45515,-0.03793 -0.9103,-0.151717 -0.45516,-0.113788 -0.91031,-0.189646 -0.83444,0 -1.85853,0 -1.02409,0.03793 -1.78268,-0.03793 -0.18965,0.113788 -0.49308,0.07586 -0.30343,0 -0.53101,0.07586 -1.02409,-0.03793 -2.04818,-0.113787 -1.02409,-0.07586 -2.01025,0.113787 -0.45516,-0.189646 -0.49309,-0.113787 -0.0379,0.07586 -0.11378,0.07586 -0.22758,-0.07586 -0.45516,-0.227576 -0.2655,-0.113788 -0.15171,-0.53101 0.87237,-0.151717 1.70682,-0.341363 0.87237,-0.189647 1.70681,-0.417223 0.11379,-0.07586 0.26551,-0.151717 0.15172,-0.07586 0.11379,-0.341364 -0.34137,-0.303434 -0.3793,-0.379293 0,-0.07586 -0.0759,-0.227575 0.15171,-0.227576 0.34136,-0.455152 0.18965,-0.227576 0.30343,-0.493081 0.15172,-0.265505 0.18965,-0.53101 0.0379,-0.303434 -0.11379,-0.644798 0.11379,-0.189646 0.0379,-0.303434 -0.0379,-0.113788 -0.0759,-0.303435 0.11379,-0.227575 0.15172,-0.379293 0.0379,-0.189646 0.0379,-0.568939 -0.30343,-0.07586 -0.41722,0.07586 -0.0759,0.113787 -0.26551,0.113787 -0.11379,-0.227575 -0.11379,-0.341363 0.0379,-0.113788 0.11379,-0.417223 0.34137,-0.265505 0.45515,-0.417222 0.11379,-0.151717 0.22758,-0.303434 0.11379,-0.189647 0.15172,-0.417222 0.0379,-0.227576 -0.0379,-0.56894 -0.34137,-0.07586 -0.45515,-0.189646 0.0759,-0.417223 0.37929,-0.872374 -0.18965,-0.113788 -0.11379,-0.379293 0.0759,-0.265505 0.30344,-0.265505 -0.11379,-0.07586 -0.11379,-0.151717 0.0379,-0.113788 0.0759,-0.189647 0.0379,-0.113788 0.0379,-0.189646 0,-0.07586 -0.11379,-0.151718 0.18964,-0.07586 0.22757,-0.341363 0.0379,-0.265505 -0.0759,-0.455152 -0.30343,0.303435 -0.2655,0.189647 0.0379,-0.113788 -0.15172,-0.151717 0.22758,-0.303435 0.45515,-0.682728 0.22758,-0.417222 0.15172,-0.910303 -0.11379,-0.113788 -0.41722,-0.113788 -0.0759,-0.417222 0.11379,-0.53101 0.18964,-0.151717 0.37929,-0.341364 0.15172,-0.682727 -0.0759,-1.175808 -0.18965,-0.53101 -0.37929,-0.948232 -0.26551,-0.189647 -0.49308,-0.455152 -0.18965,-0.265505 -0.45515,-0.53101 -0.3793,-0.455151 -1.0241,-0.53101 -0.60686,-0.07586 -1.36545,-0.03793 -0.0759,-0.113788 -0.11379,-0.227576 -0.0379,-0.151717 -0.11379,-0.265505 0.18965,-0.189647 0.53101,-0.227576 0.3793,-0.07586 0.75859,-0.113788 0.41722,0.227576 0.87237,0.227576 0.49308,0 0.94824,-0.07586 0.15171,-0.03793 0.2655,-0.113788 0.15172,-0.113787 0.30344,-0.113787 0.2655,-0.03793 0.53101,0.03793 0.2655,0.03793 0.53101,0.03793 0.53101,-0.07586 1.02409,-0.151717 0.49308,-0.113788 1.02409,-0.151717 0.37929,-0.03793 0.75858,-0.07586 0.3793,-0.07586 0.75859,-0.113788 0.26551,0.113788 0.26551,0.303435 0,0.189646 -0.0759,0.417222 -0.0379,0.227576 -0.0759,0.455151 0,0.189647 0.18964,0.303435 0.49309,0.113788 1.13788,-0.341364 0.68273,-0.493081 1.5551,-0.644798 0.56894,-0.265505 0.87238,-0.341364 0.30343,-0.113787 0.56894,-0.151717 0.2655,-0.07586 0.49308,-0.03793 0.2655,0.03793 0.49308,0.303434 0.37929,-0.03793 0.60687,0.113788 0.2655,0.151717 0.45515,0.379293 0.22758,0.189647 0.41722,0.455152 0.18965,0.227576 0.41722,0.379293 -0.0759,0.53101 0.22758,0.948232 0.30343,0.417222 0.26551,0.910303 0.0379,0.113788 0.11378,0.189647 0.0759,0.03793 0.15172,0.151717 z M 488.07327,72.9644 q 0.0379,-0.303435 -0.11379,-0.682728 -0.11379,-0.417222 -0.41723,-0.606868 -0.18964,0.151717 -0.53101,0.227576 -0.30343,0.03793 -0.49308,0.303434 0.22758,0.07586 0.3793,-0.07586 0.18964,-0.189646 0.49308,-0.151717 0.15171,0.113788 0.15171,0.265505 0.0379,0.113788 0.18965,0.189647 -0.18965,0.07586 -0.2655,0.189646 -0.0759,0.113788 -0.22758,0.189647 -0.11379,-0.07586 -0.22758,0 -0.11378,0.07586 -0.22757,0.189646 -0.11379,0.113788 -0.26551,0.227576 -0.11378,0.07586 -0.2655,0 0,0.189646 -0.30344,0.265505 -0.30343,0.07586 -0.45515,0.189646 -0.0759,0.341364 0.0759,0.265506 0.18965,-0.07586 0.30344,0.07586 -0.15172,0.303434 -0.22758,0.265505 -0.0759,-0.07586 -0.18965,0 l -0.49308,0.341364 q 0.26551,0.417222 0.68273,0.455151 0.45515,0 0.98616,-0.113787 0.37929,-0.303435 0.6448,-0.682728 0.30343,-0.379293 0.6448,-0.720656 -0.15172,-0.151718 -0.22758,-0.151718 -0.0759,0 0,-0.227575 0.15172,-0.07586 0.3793,-0.227576 z m -3.07228,0.568939 q -0.18964,0.189647 -0.37929,0.113788 -0.15172,-0.113788 -0.34136,0 -0.0379,0.417222 0.30343,0.606869 -0.0759,-0.341364 0.11379,-0.417222 0.22757,-0.07586 0.30343,-0.303435 z m -4.51358,-3.375707 q -0.34137,-0.03793 -0.68273,0 -0.34137,0.03793 -0.53101,0.303434 0.45515,0.227576 0.53101,0.113788 0.11379,-0.151717 0.30343,-0.189646 0.26551,0.151717 0.26551,0.03793 0,-0.151717 0.11379,-0.265505 z m -1.06202,0.948232 q -0.30344,-0.07586 -0.45516,0.07586 -0.15171,0.113788 -0.30343,0.227576 0.30343,0.113788 0.49308,0 0.18965,-0.151718 0.26551,-0.303435 z m -1.09995,0.53101 q -0.53101,0.03793 -0.79652,0.113788 -0.2655,0.07586 -0.34136,0.303435 0.22757,-0.03793 0.41722,-0.07586 0.22758,-0.07586 0.30343,-0.265505 0.34137,0.03793 0.3793,0.03793 0.0379,-0.03793 0.0379,-0.113788 z m -0.56894,-1.137878 q -0.56894,0.07586 -1.13788,0.07586 -0.53101,-0.03793 -1.02409,0.151717 0.30343,0.265505 0.34136,0.189647 0.0759,-0.113788 0.22758,-0.151717 0.56894,0 0.94823,0.03793 0.41722,0 0.6448,-0.303434 z m 2.35161,1.175808 q -0.45515,0.07586 -0.83444,0.227576 -0.34137,0.151717 -0.72066,0.341363 0.0379,0.455152 -0.34136,0.720657 -0.34137,0.227576 -0.6448,0.53101 0.15172,0.189646 0.0759,0.303434 -0.0759,0.113788 -0.15172,0.189647 -0.0759,-0.113788 -0.0379,-0.379293 0.0379,-0.265505 0.22758,-0.341364 0.15172,-0.493081 0.0379,-0.493081 -0.11379,0 -0.18965,-0.07586 -0.11379,0.227576 -0.34136,0.303434 -0.22758,0.03793 -0.26551,0.455152 0,0.303434 0.11379,0.53101 0.15172,0.227576 0.2655,0.265505 0.45516,-0.113788 0.3793,-0.151717 -0.0759,-0.03793 0,-0.113788 0.15172,-0.03793 0.18964,0 0.0379,0 0.22758,0 0.15172,-0.227576 0.56894,-0.455152 0,0.303435 -0.34136,0.455152 -0.34137,0.113788 -0.53101,0.341363 0.49308,-0.07586 0.87237,-0.189646 0.41722,-0.113788 0.56894,-0.53101 -0.18965,-0.113788 -0.30344,0.03793 -0.0759,0.151717 -0.22757,0.03793 0.18965,-0.455151 0.37929,-0.910303 0.18965,-0.455151 0.83445,-0.341363 -0.0759,-0.303435 0.0379,-0.379293 0.15171,-0.113788 0.15171,-0.379293 z m -0.49308,2.65505 q -0.30343,-0.07586 -0.37929,-0.07586 -0.0379,0 -0.0379,0.07586 0.15172,-0.07586 0.22758,0 0.11378,0.07586 0.18964,0 z m -1.63096,-2.199899 q -0.18964,0 -0.30343,0.03793 -0.11379,0.03793 -0.22758,0.07586 -0.0759,0.03793 -0.18964,0.07586 -0.11379,0 -0.26551,-0.03793 0.0379,0.189647 -0.0759,0.227576 -0.11379,0.03793 -0.11379,0.189647 0.22758,0.07586 0.34137,-0.07586 0.11379,-0.151717 0.37929,0.03793 -0.0379,-0.265505 0.15172,-0.303434 0.22757,-0.03793 0.30343,-0.227576 z m 1.97233,2.465405 q -0.18965,-0.151718 -0.26551,0.03793 -0.0379,0.151717 -0.22758,0.03793 -0.72065,0.606869 -1.21373,0.910303 -0.45515,0.303435 -1.13788,0.417223 -0.15172,0.265505 -0.26551,0.644798 -0.11378,0.341363 0,0.644798 0.60687,0.03793 0.87238,-0.189647 0.30343,-0.227576 0.72065,-0.379293 0.15172,-0.151717 0.34137,-0.303434 0.22757,-0.151717 0.30343,-0.341364 0.53101,-0.07586 0.79652,-0.455151 0.2655,-0.379293 0.0759,-1.024091 z m -2.08612,0.379293 q -0.2655,0.03793 -0.45515,0.113787 -0.18964,0.03793 -0.37929,0.113788 0.18965,0.303435 0.30343,0.151717 0.15172,-0.151717 0.34137,-0.227575 z m 1.40339,1.630959 q -0.30344,0 -0.60687,0.227576 -0.26551,0.227576 -0.45515,0.455152 0.37929,-0.07586 0.6448,-0.227576 0.30343,-0.151717 0.41722,-0.455152 z m 1.02409,0.455152 q -0.37929,-0.113788 -0.53101,0.113788 -0.15172,0.189646 -0.53101,0.113788 -0.53101,0.379293 -1.02409,0.796515 -0.45515,0.379293 -0.87238,0.455151 0.34137,0.303435 0.56894,0.113788 0.22758,-0.189646 0.45516,-0.07586 -0.0759,-0.341364 0.18964,-0.341364 0.26551,0 0.49308,-0.07586 0.15172,-0.303434 0.30344,-0.303434 0.18964,0 0.34136,-0.07586 0.22758,-0.151717 0.45515,-0.227575 0.22758,-0.113788 0.15172,-0.493081 z m -1.47924,1.289596 q -0.18965,0.03793 -0.26551,0 -0.0759,-0.03793 -0.15172,0.113788 0.0759,0.07586 0.22758,0.07586 0.18965,0 0.18965,-0.189646 z m 0.0759,0.455151 q -0.0759,-0.227575 -0.34137,-0.03793 -0.22757,0.151717 -0.45515,0.07586 -0.18965,0.303434 -0.60687,0.417222 -0.37929,0.113788 -0.6448,0.379293 -0.0759,0.341364 -0.2655,0.417222 0.0759,0.113788 0.0759,0.265505 0,0.151718 0.0759,0.265505 0.34136,-0.03793 0.53101,-0.03793 -0.0759,-0.303434 0.0759,-0.53101 0.22758,-0.07586 0.45516,-0.227576 0.22757,-0.189646 0.18964,-0.417222 0.26551,-0.113788 0.45515,-0.379293 0.22758,-0.265505 0.45516,-0.189647 z m 1.36545,0.644799 q 0.11379,-0.189647 0.0759,-0.56894 -0.0379,-0.417222 -0.0759,-0.606869 -0.26551,0.07586 -0.41722,0.189647 -0.11379,0.113788 -0.30344,0.227576 -0.49308,0.303434 -0.72065,0.53101 -0.18965,0.227576 -0.60687,0.455151 0,0.417223 -0.56894,0.493081 -0.0379,0.417222 -0.37929,0.417222 0.0379,0.189647 -0.0759,0.265505 -0.0759,0.07586 -0.18965,0.151718 -0.11379,0.07586 -0.22758,0.189646 -0.11378,0.07586 -0.11378,0.265505 0.37929,-0.03793 0.60687,-0.03793 0.2655,-0.03793 0.37929,0.03793 -0.11379,0.07586 -0.37929,0.227576 -0.22758,0.113788 -0.41723,0.265505 -0.15171,0.113788 -0.22757,0.303434 -0.0379,0.151718 0.18964,0.303435 0.15172,-0.07586 0.18965,-0.189647 0.0759,-0.151717 0.18965,-0.227575 0.34136,0.379293 0.18964,0.455151 -0.11378,0.03793 -0.18964,-0.03793 0.0759,0.07586 0.0379,0.227576 0,0.151717 0.0759,0.227575 0.45516,-0.151717 0.68273,-0.644798 0.18965,0.07586 0.26551,0 0.0759,-0.113788 0.22757,-0.189646 0.34137,-0.265505 0.72066,-0.303435 0.37929,-0.07586 0.68273,-0.265505 0.15171,-0.151717 0.22757,-0.341363 0.11379,-0.227576 0.11379,-0.455152 0.0379,-0.227576 -0.0379,-0.379293 -0.0759,-0.189646 -0.2655,-0.227576 -0.15172,0.303435 -0.34137,0.417223 -0.18964,0.113788 -0.53101,0.227575 -0.0379,0.189647 -0.22757,0.303435 -0.15172,0.07586 -0.34137,0 -0.0379,0.379293 -0.15171,0.455151 -0.0759,0.03793 -0.22758,0.07586 -0.18965,0.265505 -0.30343,0.379293 -0.0759,0.07586 -0.18965,0.151717 -0.22758,-0.303434 -0.26551,-0.303434 0,0 0,-0.07586 0.18965,0.03793 0.26551,-0.03793 0.11379,-0.07586 0.30343,-0.07586 -0.22757,-0.417222 -0.34136,-0.493081 -0.0759,-0.07586 0.0759,-0.113787 0.0759,-0.03793 0.22757,0 0.18965,0 0.26551,-0.07586 0.45515,-0.265505 0.68273,-0.53101 0.22757,-0.303435 0.64479,-0.379293 0.0759,-0.341364 0.34137,-0.379293 0.30343,-0.07586 0.45515,-0.303434 z m -0.11379,5.310101 q -0.22757,-0.151717 -0.45515,-0.03793 -0.0759,0.341363 0.0759,0.341363 0.18965,-0.03793 0.34136,0.113788 0.0759,-0.07586 0.0379,-0.189646 0,-0.113788 0,-0.227576 z m 0,-2.048182 q -0.22757,-0.113788 -0.30343,0.03793 -0.0759,0.151717 -0.15172,0.379293 -0.41722,0.189647 -0.68273,0.493081 -0.22757,0.265505 -0.64479,0.455152 -0.26551,0.227575 -0.49309,0.379293 -0.18964,0.151717 -0.37929,0.265505 0.22758,0 0.41722,-0.07586 0.22758,-0.113788 0.3793,-0.07586 0.45515,-0.227576 0.64479,-0.455152 0.22758,-0.227576 0.56894,-0.113788 0.15172,-0.493081 0.53101,-0.493081 0.11379,-0.189646 0.0759,-0.341363 0,-0.189647 0.0379,-0.455152 z m -0.11379,-0.682727 q -0.60686,0.151717 -0.79651,0.151717 -0.18965,0 -0.37929,0.07586 -0.75859,0.720657 -1.82061,1.327526 -0.11379,0.227576 -0.22758,0.265505 -0.0759,0.03793 -0.22757,0.113788 0,0.265505 -0.0379,0.341363 -0.0379,0.03793 -0.0759,0.379293 0.18965,0.151718 0.34136,0.113788 0.15172,-0.07586 0.26551,-0.227575 0.11379,-0.151718 0.22757,-0.265506 0.11379,-0.151717 0.26551,-0.151717 0.49308,-0.265505 0.6448,-0.53101 0.15172,-0.303434 0.49308,-0.379293 0.0759,-0.189646 0.22757,-0.303434 0.18965,-0.151717 0.3793,-0.189647 0.30343,-0.07586 0.34136,-0.151717 0.0379,-0.07586 0.11379,-0.151717 -0.0759,-0.151717 0.0379,-0.189647 0.15172,-0.07586 0.22757,-0.227575 z m 0.22758,3.944647 q -0.11379,-0.07586 -0.11379,-0.189647 0,-0.151717 -0.11379,-0.189646 -0.0759,0.189646 -0.22757,0.341363 -0.15172,0.113788 -0.26551,0.341364 0.18965,-0.03793 0.3793,-0.07586 0.18964,-0.03793 0.34136,-0.227575 z m -1.02409,-1.289597 q -0.18965,-0.07586 -0.34136,0 -0.11379,0.03793 -0.41723,0 -0.37929,0.303435 -0.30343,0.341364 0.0759,0 0.11379,0.113788 0.37929,0 0.53101,-0.189646 0.15171,-0.189647 0.41722,-0.265506 z m 0.49308,1.175809 q -0.18965,-0.03793 -0.26551,0 -0.0759,0 -0.15171,-0.03793 -0.22758,-0.227575 -0.41722,-0.227575 -0.18965,-0.03793 -0.3793,0 -0.15171,0.227575 -0.34136,0.379293 -0.15172,0.151717 -0.41722,0.07586 -0.34137,0.303434 -0.53101,0.455152 -0.15172,0.151717 -0.3793,0.151717 0.0379,0.227576 0.26551,0.189646 0.2655,-0.07586 0.30343,-0.189646 0.45515,-0.189647 0.56894,-0.379293 0.3793,-0.189647 0.53101,-0.227576 0.18965,-0.07586 0.30344,-0.189646 0.18964,0.227575 0.45515,0.189646 0.2655,-0.03793 0.45515,-0.189646 z m -1.59303,-0.56894 q -0.11379,-0.151717 -0.26551,-0.113788 -0.11378,0.03793 -0.2655,0.151717 -0.15172,0.07586 -0.30344,0.189647 -0.15171,0.07586 -0.30343,0.07586 0.30343,0.341363 0.56894,0.07586 0.26551,-0.265505 0.56894,-0.379293 z m 2.27576,1.744748 q -0.0759,-0.189647 -0.18965,-0.265505 -0.11379,-0.113788 -0.2655,-0.227576 -0.56894,0.07586 -0.83445,0.07586 -0.18965,0.151717 -0.49308,0.189646 -0.30343,0 -0.45515,0.113788 0,0.113788 -0.18965,0.303434 -0.15171,0.151717 -0.37929,0.03793 -0.18965,0.227575 -0.45515,0.265505 -0.22758,0.03793 -0.30344,0.303434 0.11379,0.227576 0.41723,0.151717 0.34136,-0.113788 0.64479,-0.303434 0.30344,-0.227576 0.60687,-0.417222 0.30344,-0.189647 0.6448,-0.227576 0.30343,0.189646 0.37929,0.189646 0.11379,-0.03793 0.30344,0 0.0379,-0.303434 0.22757,-0.227575 0.22758,0.07586 0.34137,0.03793 z m 6.44798,-13.237325 q -0.11379,0.227576 -0.41722,0.303435 -0.26551,0.03793 -0.49309,0.227575 0.18965,-0.113787 0.22758,-0.303434 0.0759,-0.227576 0.22758,-0.341364 0.34136,0.113788 0.37929,0.113788 0.0379,-0.03793 0.0759,0 z"
         id="path1145" />
    </g>
    <path
       d="m 452.91183,118.98672 -10.35421,27.05363 -5.72214,-14.94974 3.08795,-7.1747 1.39488,-0.72867 1.23931,3.23771 1.0549,-2.75616 z m -18.16444,13.69642 -1.5494,-4.04865 4.24656,-2.21827 z m -2.23256,-10.13063 1.70392,-2.31167 5.57583,2.43205 -0.85699,1.99152 -4.67889,2.44396 z m 0.22622,-1.34144 -1.47796,2.00501 -1.21761,-3.18082 z m 8.4328,0.19685 0.35137,0.91784 -0.96256,0.50271 z m 13.55857,-5.41655 -0.47889,1.25069 -9.29931,4.68127 2.93237,-7.66128 z m -14.43963,-0.76623 2.33177,6.09203 -5.41867,-2.36379 2.65589,-3.60283 z m -7.82161,3.30994 5.63192,-1.63698 -2.3749,3.22183 -3.18188,-1.38774 z m -2.46222,-1.2245 2.85539,-1.44965 -0.0423,0.36195 -0.76411,1.0668 -1.94548,0.29104 z m 6.94584,-2.18784 0.42704,1.11549 -4.05632,0.60669 0.0868,-0.73898 0.8083,-1.12845 0.13917,-0.0707 z m -9.83429,1.6346 0.23124,0.0617 2.02195,-1.30281 -1.53115,-0.24104 z m 2.83765,-2.69399 1.16602,-0.22463 -0.24209,2.06402 h -0.21987 z m 18.11814,-5.11783 10.74632,-8.979964 -5.7031,14.900544 -3.99547,-1.00912 z m -15.31223,5.96238 0.45667,-0.0503 0.40323,-1.69042 -1.08083,1.07341 z m 14.43196,-6.09203 0.93769,4.39526 -2.38919,-0.60352 z m -11.77025,4.74239 0.2585,0.67548 -1.28403,-0.15504 z m 2.59027,-1.15676 0.54927,1.4351 -0.30824,0.20135 -1.88409,-0.29686 0.47254,-0.97049 0.58182,-0.39423 z m -9.74857,-0.67971 -0.80434,1.12263 0.94642,0.59055 0.20717,-1.7653 z m 1.26576,-0.4744 2.168,0.55166 -0.23522,0.15187 -1.60073,0.16404 z m -1.7735,-1.28455 0.85884,0.22939 -0.62336,0.38603 z"
       stroke="#000000"
       id="path2657"
       style="clip-rule:evenodd;fill:#f0ece2;fill-opacity:1;fill-rule:evenodd;stroke:#f0ece2;stroke-width:0.264583;stroke-linejoin:round;stroke-miterlimit:2;stroke-opacity:1" />
    <path
       style="fill:#f0ece2;fill-opacity:1;fill-rule:evenodd;stroke:none;stroke-width:0.109852px;stroke-linecap:butt;stroke-linejoin:miter;stroke-opacity:1"
       d="m 484.36154,155.63118 c -0.0269,4.2e-4 -0.0423,0.002 -0.0423,0.002 h -9.47733 c -1.36486,0 -1.42852,0.96315 -1.42852,0.96315 v 2.69695 c 0,0.86689 1.42852,0.98482 1.42852,0.98482 h 2.8096 v 2.74481 h -4.14178 c 0,0 -2.14598,0.10808 -2.14598,1.92648 0,2.02274 -1.12877,16.27812 -1.12877,16.27812 h 29.47412 l -1.54115,-16.27812 c 0,0 -0.40871,-1.92648 -3.17865,-1.92648 h -13.38847 v -2.74481 h 2.71841 c 0.88838,0 0.9846,-0.98482 0.9846,-0.98482 v -2.41782 c 0,-1.1886 -0.75384,-1.24829 -0.94232,-1.24463 z m 1.60123,11.21803 c 0.85357,0 1.52328,0.35419 2.00909,1.06248 0.48581,0.70829 0.72863,1.67978 0.72863,2.91474 0,1.24404 -0.25423,2.22482 -0.76274,2.94219 -0.50399,0.71283 -1.18953,1.06914 -2.05673,1.06914 -0.39047,0 -0.74023,-0.0634 -1.04896,-0.19053 -0.30875,-0.13167 -0.61517,-0.36562 -0.91937,-0.7016 h -0.12252 c 0.0817,0.5403 0.12252,0.87632 0.12252,1.00799 v 3.09882 h -2.66285 v -11.06698 h 2.16572 l 0.37461,0.98073 h 0.12252 c 0.49489,-0.74461 1.17833,-1.11698 2.05008,-1.11698 z m -0.97409,2.09085 c -0.39046,0 -0.66498,0.14074 -0.82389,0.42224 -0.15438,0.27696 -0.23848,0.69012 -0.2521,1.23948 v 0.21113 c 0,0.66288 0.0885,1.14176 0.26562,1.43688 0.17706,0.29511 0.45624,0.44284 0.83762,0.44284 0.34053,0 0.58799,-0.1454 0.74236,-0.43598 0.15438,-0.29511 0.23172,-0.78097 0.23172,-1.45747 0,-0.66288 -0.0773,-1.13733 -0.23172,-1.42336 -0.15437,-0.29058 -0.41093,-0.43576 -0.76961,-0.43576 z M 470.235,182.76901 v 5.20125 c 0,1.30034 0.89383,1.30043 0.89383,1.30043 H 498.478 c 1.39665,0 1.23112,-1.25215 1.23112,-1.25215 v -5.24953 z m 14.68888,3.13037 c 0.58513,3e-5 1.05945,0.47435 1.05948,1.05947 9e-5,0.5852 -0.47427,1.05966 -1.05948,1.05969 -0.58528,9e-5 -1.05977,-0.4744 -1.05969,-1.05969 3e-5,-0.5852 0.47449,-1.05956 1.05969,-1.05947 z"
       id="path4581"
       inkscape:connector-curvature="0" />
    <rect
       style="fill:#f0ece2;stroke-width:0.331616;stroke-linecap:round;stroke-linejoin:round;stroke-miterlimit:100;paint-order:fill markers stroke"
       id="rect1030"
       width="113.1496"
       height="18.207323"
       x="300.42899"
       y="-0.17613013" />
    <text
       xml:space="preserve"
       style="font-style:normal;font-variant:normal;font-weight:normal;font-stretch:normal;font-size:8.83528px;line-height:1.25;font-family:'EB Garamond';-inkscape-font-specification:'EB Garamond, Normal';font-variant-ligatures:normal;font-variant-caps:normal;font-variant-numeric:normal;font-variant-east-asian:normal;letter-spacing:0px;word-spacing:0px;fill:#373737;fill-opacity:1;stroke:none;stroke-width:0.203728"
       x="316.64261"
       y="11.918861"
       id="text1397-4-0-7"
       inkscape:export-xdpi="96"
       inkscape:export-ydpi="96"><tspan
         sodipodi:role="line"
         id="tspan1395-0-7-8"
         x="316.64261"
         y="11.918861"
         style="font-style:normal;font-variant:normal;font-weight:normal;font-stretch:normal;font-size:8.83528px;font-family:'EB Garamond';-inkscape-font-specification:'EB Garamond, Normal';font-variant-ligatures:normal;font-variant-caps:normal;font-variant-numeric:normal;font-variant-east-asian:normal;fill:#373737;fill-opacity:1;stroke-width:0.203728">musicforprogramming.net</tspan></text>
    <path
       style="fill:#373737;fill-opacity:1;stroke:none;stroke-width:2.42722;stroke-linecap:round;stroke-linejoin:round;stroke-miterlimit:100;stroke-dasharray:none;stroke-opacity:1"
       d="m -0.3088163,-0.21770922 0.0042,18.24890222 300.7336163,0 16.39865,-18.24890222 z"
       id="path835"
       sodipodi:nodetypes="ccccc" />
    <path
       d="M 85.636743,5.6082133 C 85.031845,4.571784 84.211336,3.7512438 83.174996,3.1464034 82.138505,2.541532 81.006969,2.2391739 79.779583,2.2391739 c -1.227235,0 -2.359141,0.30245 -3.395414,0.9072295 -1.036432,0.6048085 -1.856915,1.4253806 -2.461812,2.4618099 -0.604812,1.0363968 -0.907234,2.1681514 -0.907234,3.3952299 0,1.4740018 0.430049,2.7994608 1.290357,3.9767178 0.86021,1.17735 1.97148,1.99203 3.333717,2.444132 0.158565,0.02943 0.275949,0.0087 0.352266,-0.06158 0.07635,-0.0704 0.114486,-0.158568 0.114486,-0.264135 0,-0.01761 -0.0013,-0.17609 -0.0046,-0.47561 -0.0026,-0.29952 -0.0046,-0.560818 -0.0046,-0.783769 l -0.202591,0.03504 c -0.129171,0.02366 -0.292114,0.03369 -0.488846,0.03085 -0.196634,-0.0028 -0.400769,-0.02335 -0.612115,-0.06167 -0.211452,-0.03798 -0.408112,-0.126053 -0.590158,-0.264044 -0.181954,-0.13799 -0.311119,-0.318616 -0.387476,-0.541597 l -0.08807,-0.202684 c -0.05871,-0.134936 -0.151136,-0.284836 -0.277402,-0.449141 -0.126273,-0.16446 -0.253959,-0.275951 -0.383124,-0.334658 l -0.06168,-0.04414 c -0.04107,-0.02934 -0.07922,-0.06472 -0.11448,-0.105784 -0.03527,-0.04106 -0.06161,-0.08215 -0.07922,-0.123306 -0.01763,-0.04119 -0.0026,-0.07497 0.04398,-0.101465 0.04702,-0.0265 0.13207,-0.03936 0.255438,-0.03936 l 0.17609,0.02631 c 0.117451,0.02353 0.262715,0.09384 0.435999,0.211351 0.173191,0.117415 0.315563,0.270059 0.427149,0.457872 0.135115,0.240813 0.297913,0.424308 0.488841,0.550576 0.190776,0.126268 0.383124,0.189294 0.576865,0.189294 0.193734,0 0.361061,-0.01468 0.502047,-0.0439 0.140827,-0.02937 0.272957,-0.07352 0.396324,-0.132191 0.05283,-0.393581 0.196726,-0.69594 0.431528,-0.907291 -0.33466,-0.03517 -0.635537,-0.08814 -0.902789,-0.158568 -0.2671,-0.07052 -0.543108,-0.184975 -0.827853,-0.343666 C 76.530273,11.32856 76.293932,11.13177 76.106088,10.897002 75.918211,10.662113 75.764025,10.353738 75.643742,9.9721581 75.523399,9.5904234 75.463208,9.1500735 75.463208,8.6509868 c 0,-0.7106246 0.231995,-1.3153408 0.69588,-1.8144899 -0.217309,-0.5342555 -0.196792,-1.133172 0.06162,-1.7966886 0.170286,-0.052908 0.422824,-0.013204 0.757478,0.118864 0.334721,0.1321296 0.579791,0.2453163 0.735456,0.3391624 0.155672,0.093813 0.2804,0.173314 0.374362,0.2377899 0.546199,-0.1526142 1.109856,-0.2289371 1.691126,-0.2289371 0.58127,0 1.145047,0.076323 1.691272,0.2289371 l 0.334694,-0.2112909 c 0.228872,-0.140983 0.499148,-0.2701819 0.810175,-0.3876271 0.311211,-0.1173833 0.54919,-0.1497133 0.713677,-0.096806 0.264135,0.6635472 0.28767,1.2624336 0.07031,1.7966891 0.463858,0.4991491 0.695933,1.1040201 0.695933,1.8144899 0,0.4990867 -0.06042,0.9408241 -0.180561,1.3254909 -0.12031,0.3847265 -0.27583,0.6927915 -0.466599,0.9248435 -0.190994,0.232021 -0.42884,0.42727 -0.713592,0.585713 -0.284803,0.158568 -0.560904,0.273021 -0.828004,0.343544 -0.267219,0.07052 -0.568096,0.123522 -0.902757,0.158752 0.305229,0.264136 0.457876,0.68107 0.457876,1.250618 v 1.858296 c 0,0.105568 0.03671,0.193706 0.110194,0.264136 0.07339,0.07031 0.18929,0.09101 0.347861,0.06155 1.362416,-0.45204 2.473686,-1.266751 3.333869,-2.444101 C 86.113563,11.80266 86.543764,10.4772 86.543764,9.0031991 86.543413,7.776273 86.240886,6.6446124 85.636351,5.6082158 Z"
       id="path1317"
       style="fill:#f0ece2;fill-opacity:1;stroke-width:0.0308497" />
    <text
       xml:space="preserve"
       style="font-style:normal;font-variant:normal;font-weight:normal;font-stretch:normal;font-size:15.456px;line-height:1.25;font-family:'EB Garamond';-inkscape-font-specification:'EB Garamond, Normal';font-variant-ligatures:normal;font-variant-caps:normal;font-variant-numeric:normal;font-variant-east-asian:normal;letter-spacing:0px;word-spacing:0px;fill:#f0ece2;fill-opacity:1;stroke:none;stroke-width:0.203728"
       x="89.247772"
       y="13.875846"
       id="text1397"><tspan
         sodipodi:role="line"
         id="tspan1395"
         x="89.247772"
         y="13.875846"
         style="font-style:normal;font-variant:normal;font-weight:normal;font-stretch:normal;font-size:15.456px;font-family:'EB Garamond';-inkscape-font-specification:'EB Garamond, Normal';font-variant-ligatures:normal;font-variant-caps:normal;font-variant-numeric:normal;font-variant-east-asian:normal;fill:#f0ece2;fill-opacity:1;stroke-width:0.203728">rixx</tspan></text>
    <path
       d="m 154.24739,4.1332335 c -0.56388,0.2473464 -1.16471,0.4112958 -1.79113,0.4909019 0.64443,-0.3847619 1.13628,-0.9893854 1.36751,-1.7181564 -0.60083,0.3582246 -1.26422,0.6112574 -1.97118,0.7524637 -0.57052,-0.6074672 -1.38363,-0.9836995 -2.27066,-0.9836995 -1.721,0 -3.10653,1.3968903 -3.10653,3.1093614 0,0.2463987 0.0208,0.4833202 0.072,0.7088693 -2.58435,-0.1260419 -4.8711,-1.3646691 -6.40732,-3.2515146 -0.26819,0.4653153 -0.42551,0.9979142 -0.42551,1.571266 0,1.0765726 0.55441,2.0308937 1.38079,2.583395 -0.49944,-0.00948 -0.98939,-0.1544739 -1.40448,-0.3828652 0,0.00947 0,0.021799 0,0.034119 0,1.5106125 1.07752,2.7653501 2.49053,3.0543949 -0.25304,0.06918 -0.52881,0.10235 -0.81502,0.10235 -0.19902,0 -0.39993,-0.01138 -0.58851,-0.05307 0.40276,1.231047 1.54568,2.136087 2.90466,2.165466 -1.05762,0.82733 -2.40049,1.325815 -3.85424,1.325815 -0.25493,0 -0.49943,-0.01138 -0.74394,-0.04265 1.37699,0.887984 3.00891,1.394997 4.76876,1.394997 5.72026,0 8.84762,-4.738436 8.84762,-8.8457122 0,-0.1374142 -0.005,-0.270091 -0.0114,-0.4018194 0.61694,-0.4378313 1.13533,-0.9846474 1.55799,-1.6139109 z"
       id="path1174"
       style="fill:#f0ece2;fill-opacity:1;stroke-width:0.0296618;stroke-miterlimit:100;stroke-dasharray:none" />
    <text
       xml:space="preserve"
       style="font-style:normal;font-variant:normal;font-weight:normal;font-stretch:normal;font-size:13.1579px;line-height:1.25;font-family:'EB Garamond';-inkscape-font-specification:'EB Garamond, Normal';font-variant-ligatures:normal;font-variant-caps:normal;font-variant-numeric:normal;font-variant-east-asian:normal;letter-spacing:0px;word-spacing:0px;fill:#f0ece2;fill-opacity:1;stroke:none;stroke-width:0.203728"
       x="156.23578"
       y="12.393585"
       id="text1397-4"><tspan
         sodipodi:role="line"
         id="tspan1395-0"
         x="156.23578"
         y="12.393585"
         style="font-style:normal;font-variant:normal;font-weight:normal;font-stretch:normal;font-size:13.1579px;font-family:'EB Garamond';-inkscape-font-specification:'EB Garamond, Normal';font-variant-ligatures:normal;font-variant-caps:normal;font-variant-numeric:normal;font-variant-east-asian:normal;fill:#f0ece2;fill-opacity:1;stroke-width:0.203728">@rixxtr</tspan></text>
    <text
       xml:space="preserve"
       style="font-style:normal;font-variant:normal;font-weight:normal;font-stretch:normal;font-size:14.43px;line-height:1.25;font-family:'EB Garamond';-inkscape-font-specification:'EB Garamond, Normal';font-variant-ligatures:normal;font-variant-caps:normal;font-variant-numeric:normal;font-variant-east-asian:normal;letter-spacing:0px;word-spacing:0px;fill:#f0ece2;fill-opacity:1;stroke:none;stroke-width:0.203728"
       x="5.3036313"
       y="13.733577"
       id="text1397-4-0"><tspan
         sodipodi:role="line"
         id="tspan1395-0-7"
         x="5.3036313"
         y="13.733577"
         style="font-style:normal;font-variant:normal;font-weight:normal;font-stretch:normal;font-size:14.43px;font-family:'EB Garamond';-inkscape-font-specification:'EB Garamond, Normal';font-variant-ligatures:normal;font-variant-caps:normal;font-variant-numeric:normal;font-variant-east-asian:normal;fill:#f0ece2;fill-opacity:1;stroke-width:0.203728">rixx.de</tspan></text>
  </g>
</svg>
